<svg width="13" height="22" viewBox="0 0 13 22" fill="none" xmlns="http://www.w3.org/2000/svg">
<path d="M5.1781 21.1853V18.5213H7.23088V21.1853H5.1781ZM5.1781 2.67563V8.68602e-05H7.23088V2.67563H5.1781ZM6.36595 19.2478C5.24345 19.2478 4.23243 19.0479 3.3329 18.6481C2.44105 18.2407 1.70681 17.6679 1.13019 16.9298C0.553565 16.184 0.176836 15.3076 4.49524e-06 14.3004L2.01819 13.9659C2.26422 14.9885 2.78318 15.7996 3.57508 16.3993C4.37467 16.999 5.33571 17.2988 6.45821 17.2988C7.58839 17.2988 8.5033 17.0259 9.20294 16.48C9.90258 15.9342 10.2524 15.2307 10.2524 14.3696C10.2524 13.7391 10.064 13.2317 9.68731 12.8473C9.31827 12.4629 8.69551 12.1361 7.81904 11.867L4.02485 10.6907C1.75679 9.98339 0.62276 8.63024 0.62276 6.63128C0.62276 5.6933 0.849565 4.87449 1.30318 4.17485C1.76448 3.46753 2.40645 2.92165 3.2291 2.53724C4.05944 2.14513 5.02433 1.95292 6.12376 1.96061C7.19244 1.9683 8.14579 2.1682 8.98382 2.5603C9.82185 2.94472 10.5138 3.49828 11.0597 4.22098C11.6132 4.94369 11.9861 5.80862 12.1783 6.81579L10.1025 7.19637C9.99484 6.54286 9.7565 5.97008 9.38746 5.47802C9.02611 4.98597 8.56481 4.6054 8.00356 4.33631C7.44231 4.05953 6.81187 3.91729 6.11223 3.9096C5.45872 3.90192 4.87056 4.00955 4.34776 4.23251C3.83264 4.45548 3.42516 4.76685 3.12531 5.16665C2.82547 5.56644 2.67554 6.0239 2.67554 6.53901C2.67554 7.10026 2.88313 7.57694 3.2983 7.96904C3.72116 8.35346 4.38235 8.68406 5.28189 8.96084L8.39567 9.88344C9.76419 10.2909 10.7521 10.8406 11.3595 11.5326C11.9669 12.2168 12.2706 13.1318 12.2706 14.2773C12.2706 15.2691 12.0246 16.1379 11.5325 16.8837C11.0481 17.6294 10.36 18.2099 9.46819 18.6251C8.58403 19.0402 7.54995 19.2478 6.36595 19.2478Z" fill="#171717"/>
</svg>
