<svg width="17" height="16" viewBox="0 0 17 16" fill="none" xmlns="http://www.w3.org/2000/svg">
<path d="M2.27998 15.2346L0.621802 13.5764L13.8976 0.310983L15.5558 1.97953L2.27998 15.2346ZM12.4467 15.5455C11.7627 15.5455 11.1374 15.3797 10.5709 15.0481C10.0113 14.7095 9.56217 14.2604 9.22362 13.7008C8.88507 13.1343 8.7158 12.5055 8.7158 11.8146C8.7158 11.1375 8.88853 10.5157 9.23398 9.94916C9.57944 9.38262 10.0354 8.93007 10.602 8.59153C11.1685 8.25298 11.7834 8.08371 12.4467 8.08371C13.1307 8.08371 13.756 8.25298 14.3225 8.59153C14.8891 8.92316 15.3382 9.37226 15.6698 9.9388C16.0083 10.4984 16.1776 11.1237 16.1776 11.8146C16.1776 12.5055 16.0083 13.1343 15.6698 13.7008C15.3382 14.2604 14.8891 14.7095 14.3225 15.0481C13.756 15.3797 13.1307 15.5455 12.4467 15.5455ZM12.4467 13.4106C12.73 13.4106 12.9925 13.3381 13.2343 13.193C13.4831 13.0479 13.68 12.8544 13.8251 12.6126C13.9702 12.3708 14.0427 12.1048 14.0427 11.8146C14.0427 11.5244 13.9702 11.2584 13.8251 11.0166C13.68 10.7748 13.4831 10.5813 13.2343 10.4363C12.9925 10.2912 12.73 10.2186 12.4467 10.2186C12.1565 10.2186 11.8905 10.2912 11.6487 10.4363C11.4069 10.5813 11.21 10.7748 11.058 11.0166C10.9129 11.2584 10.8403 11.5244 10.8403 11.8146C10.8403 12.1048 10.9129 12.3708 11.058 12.6126C11.21 12.8544 11.4069 13.0479 11.6487 13.193C11.8905 13.3381 12.1565 13.4106 12.4467 13.4106ZM3.73089 7.46189C3.04689 7.46189 2.42162 7.29607 1.85508 6.96444C1.28853 6.62589 0.835984 6.1768 0.497439 5.61716C0.165802 5.05062 -1.59723e-05 4.42189 -1.59723e-05 3.73098C-1.59723e-05 3.05389 0.172711 2.43207 0.518166 1.86553C0.86362 1.29898 1.31962 0.846437 1.88617 0.507891C2.45271 0.169346 3.06762 7.38994e-05 3.73089 7.38994e-05C4.41489 7.38994e-05 5.03671 0.169346 5.59635 0.507891C6.16289 0.839528 6.61544 1.28862 6.95398 1.85516C7.29253 2.4148 7.4618 3.04007 7.4618 3.73098C7.4618 4.42189 7.29253 5.05062 6.95398 5.61716C6.61544 6.1768 6.16289 6.62589 5.59635 6.96444C5.03671 7.29607 4.41489 7.46189 3.73089 7.46189ZM3.73089 5.32698C4.02107 5.32698 4.28707 5.25444 4.52889 5.10935C4.77071 4.96426 4.96417 4.7708 5.10926 4.52898C5.25435 4.28716 5.32689 4.02116 5.32689 3.73098C5.32689 3.4408 5.25435 3.1748 5.10926 2.93298C4.96417 2.69116 4.77071 2.49771 4.52889 2.35262C4.28707 2.20753 4.02107 2.13498 3.73089 2.13498C3.44071 2.13498 3.17471 2.20753 2.93289 2.35262C2.69108 2.49771 2.49762 2.69116 2.35253 2.93298C2.20744 3.1748 2.13489 3.4408 2.13489 3.73098C2.13489 4.02116 2.20744 4.28716 2.35253 4.52898C2.49762 4.7708 2.69108 4.96426 2.93289 5.10935C3.17471 5.25444 3.44071 5.32698 3.73089 5.32698Z" fill="#171717"/>
</svg>
