<svg width="17" height="17" viewBox="0 0 17 17" fill="none" xmlns="http://www.w3.org/2000/svg">
<path d="M8.36273 9.33114L1.18725 16.5066C1.05959 16.6343 0.902748 16.7027 0.716727 16.7118C0.530706 16.7209 0.364747 16.6525 0.218848 16.5066C0.0729492 16.3607 0 16.1993 0 16.0224C0 15.8455 0.0729492 15.6841 0.218848 15.5382L7.39433 8.36273L0.218848 1.18725C0.0911865 1.05959 0.0227963 0.902748 0.0136777 0.716727C0.004559 0.530706 0.0729492 0.364747 0.218848 0.218848C0.364747 0.0729492 0.526147 0 0.703049 0C0.879952 0 1.04135 0.0729492 1.18725 0.218848L8.36273 7.39433L15.5382 0.218848C15.6659 0.0911865 15.8232 0.0227963 16.0101 0.0136777C16.1952 0.004559 16.3607 0.0729492 16.5066 0.218848C16.6525 0.364747 16.7255 0.526147 16.7255 0.703049C16.7255 0.879952 16.6525 1.04135 16.5066 1.18725L9.33114 8.36273L16.5066 15.5382C16.6343 15.6659 16.7027 15.8232 16.7118 16.0101C16.7209 16.1952 16.6525 16.3607 16.5066 16.5066C16.3607 16.6525 16.1993 16.7255 16.0224 16.7255C15.8455 16.7255 15.6841 16.6525 15.5382 16.5066L8.36273 9.33114Z" fill="white"/>
</svg>
