<svg width="13" height="12" viewBox="0 0 13 12" fill="none" xmlns="http://www.w3.org/2000/svg">
<path fill-rule="evenodd" clip-rule="evenodd" d="M11.6534 0.0820957C11.8133 0.00940435 11.9882 -0.0156664 12.1601 0.00949259C12.3319 0.0346516 12.4944 0.109121 12.6305 0.225149C12.7667 0.341177 12.8716 0.494523 12.9343 0.669225C12.9971 0.843927 13.0153 1.0336 12.9871 1.2185L11.5202 10.8332C11.3779 11.7606 10.4361 12.2925 9.64897 11.8305C8.99052 11.444 8.01255 10.8486 7.1329 10.2272C6.69307 9.91624 5.34578 8.92032 5.51136 8.21164C5.65365 7.6057 7.91747 5.3287 9.21108 3.97494C9.71883 3.44308 9.48727 3.13627 8.88768 3.62549C7.39874 4.84017 5.00814 6.68735 4.21775 7.20733C3.52049 7.6658 3.15699 7.74408 2.72233 7.6658C1.92935 7.52323 1.19393 7.30238 0.593695 7.0333C-0.217399 6.66988 -0.177944 5.46498 0.593048 5.11414L11.6534 0.0820957Z" fill="white"/>
</svg>
