<svg width="261" height="186" viewBox="0 0 261 186" fill="none" xmlns="http://www.w3.org/2000/svg">
<g clip-path="url(#clip0_1802_84)">
<path d="M0.520255 0.252304V185.51" stroke="white" stroke-width="0.5"/>
<path d="M51.5913 4.25788L51.5913 164.481" stroke="white" stroke-width="0.5"/>
<path d="M156.738 6.26067L156.738 165.482" stroke="white" stroke-width="0.5"/>
<path d="M101.661 1.2537L101.661 158.473" stroke="white" stroke-width="0.5"/>
<path d="M207.809 12.269L207.809 165.482" stroke="white" stroke-width="0.5"/>
<path d="M260.883 27.2899L260.883 185.51" stroke="white" stroke-width="0.5"/>
<path d="M-2.98462 99.89L47.0851 104.898L60.3614 107.714C73.3893 110.477 86.8587 110.412 99.8594 107.523L106.116 106.133C109.806 105.313 113.375 104.018 116.733 102.281C122.95 99.0655 129.848 97.3872 136.848 97.3872H154.342C159.918 97.3872 165.469 96.6248 170.839 95.1211L174.746 94.0273C183.263 91.6424 190.937 86.9061 196.887 80.3613C200.796 76.0606 205.469 72.5211 210.667 69.9218L220.963 64.7737C229.514 60.4985 238.591 57.3698 247.96 55.4687L268.393 51.3224" stroke="#256CFA" stroke-opacity="0.18" stroke-width="39"/>
</g>
<path d="M0.520255 185.51L39.0739 166.984L93.1492 156.47L138.212 166.984L186.78 161.977L229.839 168.987L260.883 185.51" stroke="white" stroke-width="0.5"/>
<path d="M0.0195585 0.252304L63.6081 5.25927L113.177 0.252304L152.732 5.25927L188.282 10.2662L219.826 12.7697L240.354 15.7739L252.871 23.7851L260.883 27.7906" stroke="white" stroke-width="0.5"/>
<path d="M0.520255 99.3903L47.0851 104.898L80.1311 111.908L111.675 104.898L126.195 97.3875H162.746L187.781 90.3777L202.802 73.8548L233.845 58.3331L260.883 53.3262" stroke="#256CFA" stroke-width="0.5"/>
<defs>
<clipPath id="clip0_1802_84">
<rect width="260" height="185" fill="white" transform="translate(0.520255 0.252304) scale(1.00139)"/>
</clipPath>
</defs>
</svg>
