<svg width="261" height="176" viewBox="0 0 261 176" fill="none" xmlns="http://www.w3.org/2000/svg">
<path d="M0.250187 26.7583L0.250193 160.859" stroke="white" stroke-opacity="0.1" stroke-width="0.5"/>
<path d="M260.445 12.7478L260.445 146.848" stroke="white" stroke-opacity="0.1" stroke-width="0.5"/>
<path d="M0.750562 160.859L27.7708 155.355L37.7783 160.859L60.7955 163.361L67.8008 160.859H94.3207L120.841 166.863L146.36 149.851L158.869 175.37L177.883 124.832L204.903 146.848L218.914 142.845L226.42 133.338L241.431 146.848H256.442H260.445" stroke="white" stroke-width="0.5"/>
<path d="M0.750562 26.7583L20.5242 22.7304C25.2026 21.7774 30.0673 22.5173 34.2507 24.8182C36.5794 26.0989 39.1385 26.9062 41.7806 27.1934L56.5808 28.8021C59.3546 29.1036 62.1606 28.7727 64.7881 27.8343C66.7817 27.1223 68.8829 26.7583 70.9998 26.7583H88.7007C92.4357 26.7583 96.1591 27.1746 99.8019 27.9994L112.67 30.9128C117.887 32.0941 123.36 31.083 127.811 28.1158L138.548 20.9579C142.685 18.2 148.304 19.7159 150.492 24.1802C153.664 30.6507 163.033 30.201 165.571 23.4564L170.747 9.69778C174.255 0.375642 185.872 -2.75969 193.593 3.53184L197.923 7.06003C202.297 10.6238 208.137 11.8241 213.561 10.2741L216.209 9.51761C217.968 9.01518 219.524 7.97245 220.657 6.53699C223.778 2.58418 229.589 2.08994 233.332 5.45897L237.459 9.17351C240.016 11.4746 243.334 12.7478 246.774 12.7478H256.442H260.445" stroke="#256CFA" stroke-width="0.5"/>
</svg>
