<svg width="72" height="57" viewBox="0 0 72 57" fill="none" xmlns="http://www.w3.org/2000/svg">
    <path d="M14.6875 46.5625C6.375 46.5625 0.875 39.9375 0.875 29.5625C0.875 19.1875 6.375 12.5938 14.625 12.5938C19.3438 12.5938 23.0938 14.9688 24.9375 18.5938H25.0625V0.90625H31.8438V46H25.2812V40.4062H25.1562C23.2188 44.1562 19.4688 46.5625 14.6875 46.5625ZM16.4688 18.2812C11.125 18.2812 7.78125 22.6562 7.78125 29.5625C7.78125 36.5 11.125 40.8438 16.4688 40.8438C21.6562 40.8438 25.125 36.4375 25.125 29.5625C25.125 22.75 21.6562 18.2812 16.4688 18.2812ZM48.1313 40.5625C51.0479 40.5625 53.4854 39.2812 55.4438 36.7188C57.4229 34.1562 58.4125 30.9479 58.4125 27.0938C58.4125 24.3646 57.7563 22.2292 56.4438 20.6875C55.1521 19.125 53.3604 18.3438 51.0688 18.3438C48.9646 18.3438 47.0896 18.9896 45.4438 20.2812C43.7979 21.5729 42.5479 23.2708 41.6938 25.375C40.8396 27.4792 40.4125 29.7604 40.4125 32.2188C40.4125 34.6979 41.1104 36.7083 42.5063 38.25C43.9229 39.7917 45.7979 40.5625 48.1313 40.5625ZM34.6313 56.9062H28.0063L37.3188 13.0312H43.85L42.7563 18.1562H42.8813C43.9438 16.4271 45.4021 15.0521 47.2563 14.0312C49.1313 12.9896 51.1208 12.4688 53.225 12.4688C56.8917 12.4688 59.7875 13.7188 61.9125 16.2188C64.0375 18.6979 65.1 22.0521 65.1 26.2812C65.1 30.1146 64.3917 33.5833 62.975 36.6875C61.5583 39.7708 59.6 42.1875 57.1 43.9375C54.6208 45.6875 51.85 46.5625 48.7875 46.5625C46.3083 46.5625 44.1313 45.9271 42.2563 44.6562C40.3813 43.3646 39.1208 41.6771 38.475 39.5938H38.3188L34.6313 56.9062ZM67.6063 46.3438C65.325 46.3438 63.5125 44.5312 63.5125 42.25C63.5125 39.9688 65.325 38.1562 67.6063 38.1562C69.8875 38.1562 71.7 39.9688 71.7 42.25C71.7 44.5312 69.8875 46.3438 67.6063 46.3438Z" fill="black"/>
    </svg>
    