<svg width="61" height="46" viewBox="0 0 61 46" fill="none" xmlns="http://www.w3.org/2000/svg">
<path d="M11.2444 37.1674C4.4774 37.1674 1.35899e-05 31.7742 1.35899e-05 23.3282C1.35899e-05 14.8822 4.4774 9.51444 11.1935 9.51444C15.0349 9.51444 18.0876 11.4479 19.5886 14.3989H19.6903V-2.98023e-07H25.2107V36.7095H19.8684V32.1558H19.7666C18.1894 35.2085 15.1366 37.1674 11.2444 37.1674ZM12.6944 14.1445C8.34423 14.1445 5.62218 17.706 5.62218 23.3282C5.62218 28.9758 8.34423 32.5119 12.6944 32.5119C16.9174 32.5119 19.7412 28.9249 19.7412 23.3282C19.7412 17.7823 16.9174 14.1445 12.6944 14.1445ZM40.0329 32.283C44.7647 32.283 48.4026 27.6275 48.4026 21.3185C48.4026 16.8919 46.1639 14.1953 42.4242 14.1953C37.1328 14.1953 33.7493 19.5122 33.7493 25.4906C33.7493 29.4846 36.217 32.283 40.0329 32.283ZM29.043 45.5879H23.6498L31.2308 9.8706H36.5477L35.6573 14.0427H35.759C37.4635 11.2443 40.7198 9.41268 44.1796 9.41268C50.1579 9.41268 53.8467 13.8137 53.8467 20.657C53.8467 30.146 48.1227 37.1674 40.5671 37.1674C36.4714 37.1674 33.2151 34.8269 32.1721 31.4943H32.0449L29.043 45.5879ZM57.4499 36.9893C55.5928 36.9893 54.1173 35.5138 54.1173 33.6567C54.1173 31.7996 55.5928 30.3241 57.4499 30.3241C59.307 30.3241 60.7825 31.7996 60.7825 33.6567C60.7825 35.5138 59.307 36.9893 57.4499 36.9893Z" fill="white"/>
</svg>
