<svg width="20" height="14" viewBox="0 0 20 14" fill="none" xmlns="http://www.w3.org/2000/svg">
<path d="M9.90075 4.18032C9.18461 4.18032 8.4978 4.47393 7.99142 4.99658C7.48503 5.51922 7.20055 6.22807 7.20055 6.9672C7.20055 7.70632 7.48503 8.41518 7.99142 8.93782C8.4978 9.46046 9.18461 9.75408 9.90075 9.75408C10.6169 9.75408 11.3037 9.46046 11.8101 8.93782C12.3165 8.41518 12.601 7.70632 12.601 6.9672C12.601 6.22807 12.3165 5.51922 11.8101 4.99658C11.3037 4.47393 10.6169 4.18032 9.90075 4.18032ZM9.90075 11.612C8.70719 11.612 7.56251 11.1226 6.71853 10.2516C5.87455 9.3805 5.40041 8.19907 5.40041 6.9672C5.40041 5.73532 5.87455 4.5539 6.71853 3.68283C7.56251 2.81176 8.70719 2.3224 9.90075 2.3224C11.0943 2.3224 12.239 2.81176 13.083 3.68283C13.927 4.5539 14.4011 5.73532 14.4011 6.9672C14.4011 8.19907 13.927 9.3805 13.083 10.2516C12.239 11.1226 11.0943 11.612 9.90075 11.612ZM9.90075 0C5.40041 0 1.55712 2.88906 0 6.9672C1.55712 11.0453 5.40041 13.9344 9.90075 13.9344C14.4011 13.9344 18.2444 11.0453 19.8015 6.9672C18.2444 2.88906 14.4011 0 9.90075 0Z" fill="#171717"/>
</svg>
