<svg width="32" height="32" viewBox="0 0 32 32" fill="none" xmlns="http://www.w3.org/2000/svg">
<circle cx="16" cy="16" r="16" fill="white"/>
<path d="M11 13V11H25V13H11ZM11 17V15H25V17H11ZM11 21V19H25V21H11ZM8 13C7.71667 13 7.47934 12.904 7.288 12.712C7.09667 12.52 7.00067 12.2827 7 12C6.99934 11.7173 7.09534 11.48 7.288 11.288C7.48067 11.096 7.718 11 8 11C8.282 11 8.51967 11.096 8.713 11.288C8.90634 11.48 9.002 11.7173 9 12C8.998 12.2827 8.902 12.5203 8.712 12.713C8.522 12.9057 8.28467 13.0013 8 13ZM8 17C7.71667 17 7.47934 16.904 7.288 16.712C7.09667 16.52 7.00067 16.2827 7 16C6.99934 15.7173 7.09534 15.48 7.288 15.288C7.48067 15.096 7.718 15 8 15C8.282 15 8.51967 15.096 8.713 15.288C8.90634 15.48 9.002 15.7173 9 16C8.998 16.2827 8.902 16.5203 8.712 16.713C8.522 16.9057 8.28467 17.0013 8 17ZM8 21C7.71667 21 7.47934 20.904 7.288 20.712C7.09667 20.52 7.00067 20.2827 7 20C6.99934 19.7173 7.09534 19.48 7.288 19.288C7.48067 19.096 7.718 19 8 19C8.282 19 8.51967 19.096 8.713 19.288C8.90634 19.48 9.002 19.7173 9 20C8.998 20.2827 8.902 20.5203 8.712 20.713C8.522 20.9057 8.28467 21.0013 8 21Z" fill="#171717"/>
</svg>
