<svg width="32" height="32" viewBox="0 0 32 32" fill="none" xmlns="http://www.w3.org/2000/svg">
<circle cx="16" cy="16" r="16" fill="white"/>
<path d="M15.2 17.6H8.8V22.4C8.8 22.8243 8.96857 23.2313 9.26863 23.5314C9.56869 23.8314 9.97565 24 10.4 24H21.6C22.0243 24 22.4313 23.8314 22.7314 23.5314C23.0314 23.2313 23.2 22.8243 23.2 22.4V17.6H16.8V19.2H15.2V17.6ZM15.2 16.8H8V12C8 11.12 8.72 10.4 9.6 10.4H12.8V9.6C12.8 9.17565 12.9686 8.76869 13.2686 8.46863C13.5687 8.16857 13.9757 8 14.4 8H17.6C18.0243 8 18.4313 8.16857 18.7314 8.46863C19.0314 8.76869 19.2 9.17565 19.2 9.6V10.4H22.4C22.8243 10.4 23.2313 10.5686 23.5314 10.8686C23.8314 11.1687 24 11.5757 24 12V16.8H16.8V15.2H15.2V16.8ZM17.6 10.4V9.6H14.4V10.4H17.6Z" fill="#171717"/>
</svg>
