<svg width="31" height="31" viewBox="0 0 31 31" fill="none" xmlns="http://www.w3.org/2000/svg">
<circle cx="15.4999" cy="15.4999" r="15.4999" fill="#FF5343"/>
<path d="M11.6405 20.8653H9.03464C8.48782 20.8653 8.21656 20.8653 8.05122 20.7662C7.96383 20.7127 7.89099 20.6398 7.83884 20.5534C7.78669 20.467 7.75675 20.3698 7.75154 20.2699C7.74121 20.0825 7.87727 19.8577 8.14767 19.4039L14.5804 8.59324C14.8568 8.1344 14.9972 7.90457 15.172 7.82046C15.2648 7.77416 15.3677 7.75 15.4721 7.75C15.5765 7.75 15.6794 7.77416 15.7722 7.82046C15.9462 7.90457 16.0822 8.1344 16.3535 8.59324L17.6805 10.795L17.6857 10.8033C17.9035 11.1156 18.0766 11.4545 18.1989 11.8109C18.2712 12.0924 18.2712 12.3964 18.1989 12.682C18.0764 13.0416 17.9037 13.3834 17.6857 13.6979L14.3048 19.3939L14.2945 19.413C14.1201 19.7529 13.8984 20.0681 13.6357 20.3499C13.4074 20.5544 13.1342 20.7064 12.8366 20.7945C12.561 20.8653 12.2553 20.8653 11.6405 20.8653ZM18.223 20.8653H21.9526C22.5098 20.8653 22.7853 20.8653 22.9507 20.7621C23.0382 20.7085 23.1111 20.6354 23.1633 20.5489C23.2154 20.4623 23.2453 20.3649 23.2504 20.2649C23.2607 20.0825 23.1298 19.8677 22.868 19.4405L22.8387 19.3939L20.9701 16.3494L20.9502 16.3119C20.6885 15.8905 20.5533 15.6749 20.3836 15.5908C20.2916 15.5445 20.1894 15.5203 20.0857 15.5203C19.9819 15.5203 19.8797 15.5445 19.7877 15.5908C19.6129 15.6749 19.4777 15.8997 19.2064 16.3494L17.3369 19.3989V19.408C17.0613 19.8577 16.9253 20.0826 16.9348 20.2658C16.9401 20.3663 16.9701 20.4641 17.0224 20.5512C17.0747 20.6382 17.1476 20.7119 17.2353 20.7662C17.3946 20.8653 17.671 20.8653 18.223 20.8653Z" fill="white"/>
</svg>
