<svg width="8" height="5" viewBox="0 0 8 5" fill="none" xmlns="http://www.w3.org/2000/svg">
<path fill-rule="evenodd" clip-rule="evenodd" d="M3.5744 0.191501C3.68729 0.0688832 3.84038 0 4 0C4.15962 0 4.31271 0.0688832 4.4256 0.191501L7.83102 3.89155C7.94067 4.01491 8.00135 4.18012 7.99998 4.35162C7.99861 4.52311 7.9353 4.68716 7.82368 4.80843C7.71207 4.9297 7.56109 4.99849 7.40325 4.99998C7.24541 5.00147 7.09335 4.93554 6.97981 4.8164L4 1.57877L1.02019 4.8164C0.906652 4.93554 0.754589 5.00147 0.596751 4.99998C0.438914 4.99849 0.287929 4.9297 0.176316 4.80843C0.064704 4.68716 0.00139432 4.52311 2.27565e-05 4.35162C-0.00134881 4.18012 0.0593276 4.01491 0.168984 3.89155L3.5744 0.191501Z" fill="#42B33C"/>
</svg>
