<svg width="32" height="32" viewBox="0 0 32 32" fill="none" xmlns="http://www.w3.org/2000/svg">
<circle cx="16" cy="16" r="16" fill="white"/>
<path d="M15.9008 13.3229C15.1846 13.3229 14.4978 13.6165 13.9914 14.1392C13.485 14.6618 13.2005 15.3706 13.2005 16.1098C13.2005 16.8489 13.485 17.5578 13.9914 18.0804C14.4978 18.603 15.1846 18.8967 15.9008 18.8967C16.6169 18.8967 17.3037 18.603 17.8101 18.0804C18.3165 17.5578 18.601 16.8489 18.601 16.1098C18.601 15.3706 18.3165 14.6618 17.8101 14.1392C17.3037 13.6165 16.6169 13.3229 15.9008 13.3229ZM15.9008 20.7546C14.7072 20.7546 13.5625 20.2652 12.7185 19.3941C11.8746 18.5231 11.4004 17.3417 11.4004 16.1098C11.4004 14.8779 11.8746 13.6965 12.7185 12.8254C13.5625 11.9543 14.7072 11.465 15.9008 11.465C17.0943 11.465 18.239 11.9543 19.083 12.8254C19.927 13.6965 20.4011 14.8779 20.4011 16.1098C20.4011 17.3417 19.927 18.5231 19.083 19.3941C18.239 20.2652 17.0943 20.7546 15.9008 20.7546ZM15.9008 9.14258C11.4004 9.14258 7.55712 12.0316 6 16.1098C7.55712 20.1879 11.4004 23.077 15.9008 23.077C20.4011 23.077 24.2444 20.1879 25.8015 16.1098C24.2444 12.0316 20.4011 9.14258 15.9008 9.14258Z" fill="#171717"/>
</svg>
