<svg width="61" height="26" viewBox="0 0 61 26" fill="none" xmlns="http://www.w3.org/2000/svg">
<rect width="25" height="26" rx="8" fill="#171717"/>
<path d="M11 15.1429L14.8925 13L11 10.8571V15.1429ZM19.67 9.55C19.7675 9.88571 19.835 10.3357 19.88 10.9071C19.9325 11.4786 19.955 11.9714 19.955 12.4L20 13C20 14.5643 19.88 15.7143 19.67 16.45C19.4825 17.0929 19.0475 17.5071 18.3725 17.6857C18.02 17.7786 17.375 17.8429 16.385 17.8857C15.41 17.9357 14.5175 17.9571 13.6925 17.9571L12.5 18C9.3575 18 7.4 17.8857 6.6275 17.6857C5.9525 17.5071 5.5175 17.0929 5.33 16.45C5.2325 16.1143 5.165 15.6643 5.12 15.0929C5.0675 14.5214 5.045 14.0286 5.045 13.6L5 13C5 11.4357 5.12 10.2857 5.33 9.55C5.5175 8.90714 5.9525 8.49286 6.6275 8.31429C6.98 8.22143 7.625 8.15714 8.615 8.11429C9.59 8.06429 10.4825 8.04286 11.3075 8.04286L12.5 8C15.6425 8 17.6 8.11429 18.3725 8.31429C19.0475 8.49286 19.4825 8.90714 19.67 9.55Z" fill="white"/>
<rect x="36" width="25" height="26" rx="8" fill="#171717"/>
<path fill-rule="evenodd" clip-rule="evenodd" d="M53.6534 7.0821C53.8133 7.0094 53.9882 6.98433 54.1601 7.00949C54.3319 7.03465 54.4944 7.10912 54.6305 7.22515C54.7667 7.34118 54.8716 7.49452 54.9343 7.66922C54.9971 7.84393 55.0153 8.0336 54.9871 8.2185L53.5202 17.8332C53.3779 18.7606 52.4361 19.2925 51.649 18.8305C50.9905 18.444 50.0126 17.8486 49.1329 17.2272C48.6931 16.9162 47.3458 15.9203 47.5114 15.2116C47.6537 14.6057 49.9175 12.3287 51.2111 10.9749C51.7188 10.4431 51.4873 10.1363 50.8877 10.6255C49.3987 11.8402 47.0081 13.6873 46.2177 14.2073C45.5205 14.6658 45.157 14.7441 44.7223 14.6658C43.9293 14.5232 43.1939 14.3024 42.5937 14.0333C41.7826 13.6699 41.8221 12.465 42.593 12.1141L53.6534 7.0821Z" fill="white"/>
</svg>
