<svg width="15" height="10" viewBox="0 0 15 10" fill="none" xmlns="http://www.w3.org/2000/svg">
<path d="M6 7.14286L9.8925 5L6 2.85714V7.14286ZM14.67 1.55C14.7675 1.88571 14.835 2.33571 14.88 2.90714C14.9325 3.47857 14.955 3.97143 14.955 4.4L15 5C15 6.56429 14.88 7.71429 14.67 8.45C14.4825 9.09286 14.0475 9.50714 13.3725 9.68571C13.02 9.77857 12.375 9.84286 11.385 9.88571C10.41 9.93571 9.5175 9.95714 8.6925 9.95714L7.5 10C4.3575 10 2.4 9.88571 1.6275 9.68571C0.9525 9.50714 0.5175 9.09286 0.33 8.45C0.2325 8.11429 0.165 7.66429 0.12 7.09286C0.0675001 6.52143 0.045 6.02857 0.045 5.6L0 5C0 3.43571 0.12 2.28571 0.33 1.55C0.5175 0.907143 0.9525 0.492857 1.6275 0.314286C1.98 0.221429 2.625 0.157143 3.615 0.114286C4.59 0.0642856 5.4825 0.0428571 6.3075 0.0428571L7.5 0C10.6425 0 12.6 0.114286 13.3725 0.314286C14.0475 0.492857 14.4825 0.907143 14.67 1.55Z" fill="white"/>
</svg>
