<svg width="16" height="16" viewBox="0 0 16 16" fill="none" xmlns="http://www.w3.org/2000/svg">
<path d="M7.2 9.6H0.8V14.4C0.8 14.8243 0.968571 15.2313 1.26863 15.5314C1.56869 15.8314 1.97565 16 2.4 16H13.6C14.0243 16 14.4313 15.8314 14.7314 15.5314C15.0314 15.2313 15.2 14.8243 15.2 14.4V9.6H8.8V11.2H7.2V9.6ZM7.2 8.8H0V4C0 3.12 0.72 2.4 1.6 2.4H4.8V1.6C4.8 1.17565 4.96857 0.768687 5.26863 0.468629C5.56869 0.168571 5.97565 0 6.4 0L9.6 0C10.0243 0 10.4313 0.168571 10.7314 0.468629C11.0314 0.768687 11.2 1.17565 11.2 1.6V2.4H14.4C14.8243 2.4 15.2313 2.56857 15.5314 2.86863C15.8314 3.16869 16 3.57565 16 4V8.8H8.8V7.2H7.2V8.8ZM9.6 2.4V1.6H6.4V2.4H9.6Z" fill="#171717"/>
</svg>
