<svg width="31" height="31" viewBox="0 0 31 31" fill="none" xmlns="http://www.w3.org/2000/svg">
<circle cx="15.4999" cy="15.4999" r="15.4999" fill="#CFF65E"/>
<path d="M9.24694 8.34688H22.1528V11.4185H9.24694V8.34688ZM17.6357 17.0712V23.8468H13.764V17.0712H17.6357Z" fill="#171717"/>
<path d="M15.6963 13.1858C10.9728 13.1858 7.15262 14.1279 7.15262 15.2765C7.15262 16.4251 10.9857 17.3673 15.6963 17.3673C20.4069 17.3673 24.24 16.4251 24.24 15.2765C24.24 14.1279 20.4069 13.1858 15.6963 13.1858ZM15.6963 16.4122C11.3341 16.4122 7.79791 15.7669 7.79791 14.9668C7.79791 14.1666 11.3341 13.5213 15.6963 13.5213C20.0585 13.5213 23.5947 14.1666 23.5947 14.9668C23.5947 15.7669 20.0585 16.4122 15.6963 16.4122Z" fill="#171717"/>
<path d="M15.6986 15.9359C16.3697 15.9359 17.015 15.923 17.6345 15.8843V10.6058H13.7627V15.8843C14.3822 15.9101 15.0275 15.9359 15.6986 15.9359Z" fill="#171717"/>
</svg>
