<svg width="31" height="31" viewBox="0 0 31 31" fill="none" xmlns="http://www.w3.org/2000/svg">
<circle cx="15.4999" cy="15.4999" r="15.4999" fill="#E8A005"/>
<path fill-rule="evenodd" clip-rule="evenodd" d="M15.4387 22.7935H13.5471V25.0382H11.1827V22.7935H10.5656V22.7886H8.34539V20.5389H10.5656V10.4606H8.34539V8.21097H11.1827V5.96135H13.5471V8.21097H15.4387V5.96135H17.8031V8.21097H17.2356C20.1146 8.21097 21.92 9.61564 21.92 11.8491C21.92 13.4459 20.6669 14.7799 19.0416 15.012V15.093C21.1232 15.2447 22.653 16.6898 22.653 18.62C22.653 21.1036 20.7534 22.6887 17.666 22.7886H17.8031V25.0382H15.4387V22.7935ZM13.7736 10.4849V14.2746H16.0785C17.7884 14.2746 18.7654 13.557 18.7654 12.3242C18.7654 11.1517 17.9048 10.4849 16.4076 10.4849H13.7736ZM13.7736 20.5196H16.5353C18.3833 20.5196 19.3816 19.7718 19.3816 18.3775C19.3816 17.0129 18.3512 16.2853 16.4606 16.2853H13.7741L13.7736 20.5196Z" fill="#171717"/>
</svg>
