<svg width="1219" height="392" viewBox="0 0 1219 392" fill="none" xmlns="http://www.w3.org/2000/svg">
<path d="M0.286865 30.3955C0.286865 13.827 13.7183 0.395508 30.2869 0.395508H1188.84C1205.41 0.395508 1218.84 13.827 1218.84 30.3955V361.777C1218.84 378.346 1205.41 391.777 1188.84 391.777H30.2868C13.7183 391.777 0.286865 378.346 0.286865 361.777V30.3955Z" fill="white"/>
<path d="M225.18 265.66C199.497 265.66 181.723 244.762 181.723 213.219C181.723 181.578 199.399 160.777 224.887 160.777C241.294 160.777 254.282 170.152 259.653 183.336H259.946V123.082H272.934V264H260.629V242.516H260.336C254.575 256.188 241.586 265.66 225.18 265.66ZM227.426 172.203C207.895 172.203 195.004 188.414 195.004 213.219C195.004 238.023 207.895 254.234 227.426 254.234C246.762 254.234 260.044 237.828 260.044 213.219C260.044 188.707 246.762 172.203 227.426 172.203ZM324.313 172.105C306.149 172.105 293.551 186.07 292.477 206.09H355.172C354.879 186.07 342.672 172.105 324.313 172.105ZM354.391 235.191H367.184C364.157 252.77 347.653 265.66 325.29 265.66C296.774 265.66 279.098 245.738 279.098 213.512C279.098 181.969 296.969 160.777 324.508 160.777C351.461 160.777 368.454 180.602 368.454 210.875V216.344H292.379V217.125C292.379 240.074 305.368 254.332 325.583 254.332C340.915 254.332 351.559 246.324 354.391 235.191ZM421.297 160.777C446.981 160.777 464.559 181.676 464.559 213.219C464.559 244.859 447.079 265.66 421.59 265.66C405.184 265.66 392.391 256.285 387.02 243.102H386.629V297.594H373.739V162.438H385.946V183.922H386.336C391.903 170.445 404.794 160.777 421.297 160.777ZM419.051 254.234C438.68 254.234 451.376 238.023 451.376 213.219C451.376 188.512 438.68 172.203 419.051 172.203C399.813 172.203 386.629 188.805 386.629 213.219C386.629 237.73 399.813 254.234 419.051 254.234ZM502.657 254.527C520.43 254.527 534.395 241.93 534.395 225.816V214.586L504.317 216.637C488.301 217.711 479.415 224.645 479.415 235.875C479.415 246.91 488.887 254.527 502.657 254.527ZM500.02 265.66C480.001 265.66 466.329 253.648 466.329 235.875C466.329 218.492 479.317 207.945 502.754 206.383L534.395 204.43V195.641C534.395 180.992 525.118 172.203 509.297 172.203C494.356 172.203 484.786 179.527 482.54 191.832H470.04C471.504 173.668 486.446 160.777 509.59 160.777C532.735 160.777 547.286 173.766 547.286 194.469V264H534.981V244.664H534.688C529.024 257.262 515.157 265.66 500.02 265.66ZM556.965 264V162.438H569.172V180.504H569.465C573.176 168.102 582.649 160.777 595.149 160.777C598.567 160.777 601.594 161.461 603.157 161.852V174.547C601.497 173.766 597.883 173.082 593.489 173.082C579.036 173.082 569.856 184.312 569.856 200.719V264H556.965ZM627.665 137.047H640.555V162.438H660.575V173.18H640.555V238.414C640.555 248.863 644.657 253.355 654.032 253.355C655.399 253.355 660.282 253.16 661.063 252.965V264C659.696 264.293 654.227 264.586 651.493 264.586C634.501 264.586 627.665 257.359 627.665 239V173.18H612.528V162.438H627.665V137.047ZM668.934 264V162.438H681.141V181.188H681.434C685.829 169.273 696.278 160.777 711.024 160.777C725.868 160.777 736.61 169.371 740.419 182.164H740.711C745.497 169.664 757.411 160.777 772.743 160.777C792.567 160.777 805.555 174.059 805.555 194.566V264H792.665V197.496C792.665 181.773 783.876 172.301 769.129 172.301C754.09 172.301 743.739 183.824 743.739 200.035V264H730.751V196.324C730.751 181.773 721.376 172.301 707.508 172.301C692.567 172.301 681.825 184.312 681.825 201.598V264H668.934ZM857.469 172.105C839.305 172.105 826.708 186.07 825.633 206.09H888.329C888.036 186.07 875.829 172.105 857.469 172.105ZM887.547 235.191H900.34C897.313 252.77 880.809 265.66 858.446 265.66C829.93 265.66 812.254 245.738 812.254 213.512C812.254 181.969 830.126 160.777 857.665 160.777C884.618 160.777 901.61 180.602 901.61 210.875V216.344H825.536V217.125C825.536 240.074 838.524 254.332 858.739 254.332C874.071 254.332 884.715 246.324 887.547 235.191ZM906.895 264V162.438H919.102V181.188H919.395C924.571 168.883 936.485 160.777 952.891 160.777C975.157 160.777 988.829 175.133 988.829 198.18V264H975.938V200.23C975.938 182.457 966.172 172.301 949.18 172.301C931.602 172.301 919.786 184.996 919.786 203.844V264H906.895ZM1004.17 137.047H1017.06V162.438H1037.08V173.18H1017.06V238.414C1017.06 248.863 1021.16 253.355 1030.54 253.355C1031.91 253.355 1036.79 253.16 1037.57 252.965V264C1036.2 264.293 1030.73 264.586 1028 264.586C1011.01 264.586 1004.17 257.359 1004.17 239V173.18H989.036V162.438H1004.17V137.047Z" fill="black"/>
<path d="M653.588 318.784C646.68 318.784 642.286 313.668 642.286 305.635C642.286 297.69 646.698 292.61 653.588 292.61C658.95 292.61 663.186 296.108 663.872 301.065H661.463C660.76 297.409 657.526 294.842 653.588 294.842C648.21 294.842 644.747 299.043 644.747 305.635C644.747 312.315 648.21 316.551 653.606 316.551C657.649 316.551 660.708 314.389 661.463 310.874H663.872C662.975 315.813 659.09 318.784 653.588 318.784ZM665.613 318.379V300.098H667.811V303.35H667.863C668.531 301.118 670.236 299.799 672.486 299.799C673.102 299.799 673.646 299.922 673.928 299.993V302.278C673.629 302.137 672.978 302.014 672.187 302.014C669.586 302.014 667.934 304.036 667.934 306.989V318.379H665.613ZM681.171 301.838C677.902 301.838 675.634 304.352 675.441 307.956H686.726C686.673 304.352 684.476 301.838 681.171 301.838ZM686.585 313.194H688.888C688.343 316.358 685.372 318.678 681.347 318.678C676.214 318.678 673.033 315.092 673.033 309.292C673.033 303.614 676.249 299.799 681.206 299.799C686.058 299.799 689.117 303.368 689.117 308.817V309.801H675.423V309.942C675.423 314.073 677.761 316.639 681.4 316.639C684.16 316.639 686.076 315.198 686.585 313.194ZM696.677 316.674C699.876 316.674 702.39 314.407 702.39 311.506V309.485L696.975 309.854C694.093 310.047 692.493 311.295 692.493 313.317C692.493 315.303 694.198 316.674 696.677 316.674ZM696.202 318.678C692.598 318.678 690.138 316.516 690.138 313.317C690.138 310.188 692.475 308.29 696.694 308.008L702.39 307.657V306.075C702.39 303.438 700.72 301.856 697.872 301.856C695.182 301.856 693.46 303.174 693.056 305.389H690.806C691.069 302.12 693.759 299.799 697.925 299.799C702.091 299.799 704.71 302.137 704.71 305.864V318.379H702.495V314.899H702.442C701.423 317.167 698.927 318.678 696.202 318.678ZM708.174 295.528H710.494V300.098H714.098V302.032H710.494V313.774C710.494 315.655 711.233 316.463 712.92 316.463C713.166 316.463 714.045 316.428 714.186 316.393V318.379C713.94 318.432 712.955 318.485 712.463 318.485C709.405 318.485 708.174 317.184 708.174 313.879V302.032H705.45V300.098H708.174V295.528ZM722.554 301.838C719.285 301.838 717.017 304.352 716.824 307.956H728.109C728.056 304.352 725.859 301.838 722.554 301.838ZM727.968 313.194H730.271C729.726 316.358 726.756 318.678 722.73 318.678C717.597 318.678 714.416 315.092 714.416 309.292C714.416 303.614 717.633 299.799 722.59 299.799C727.441 299.799 730.5 303.368 730.5 308.817V309.801H716.806V309.942C716.806 314.073 719.144 316.639 722.783 316.639C725.543 316.639 727.459 315.198 727.968 313.194ZM739.079 318.678C734.456 318.678 731.257 314.917 731.257 309.239C731.257 303.543 734.439 299.799 739.027 299.799C741.98 299.799 744.318 301.487 745.284 303.86H745.337V293.014H747.675V318.379H745.46V314.512H745.407C744.37 316.973 742.032 318.678 739.079 318.678ZM739.484 301.856C735.968 301.856 733.648 304.774 733.648 309.239C733.648 313.704 735.968 316.622 739.484 316.622C742.964 316.622 745.355 313.668 745.355 309.239C745.355 304.827 742.964 301.856 739.484 301.856ZM765.15 318.678C762.232 318.678 759.895 317.079 758.805 314.512H758.752V318.379H756.52V293.014H758.857V303.913H758.91C759.947 301.399 762.303 299.799 765.168 299.799C769.756 299.799 772.885 303.543 772.885 309.239C772.885 314.934 769.756 318.678 765.15 318.678ZM764.711 301.856C761.283 301.856 758.84 304.862 758.84 309.239C758.84 313.633 761.266 316.622 764.711 316.622C768.227 316.622 770.494 313.721 770.494 309.239C770.494 304.774 768.227 301.856 764.711 301.856ZM775.488 324.989C775.119 324.989 774.591 324.936 774.328 324.883V322.897C774.609 322.967 775.066 323.002 775.435 323.002C777.105 323.002 778.019 322.159 778.828 319.874L779.32 318.502L772.464 300.098H774.96L780.515 316.059H780.568L786.14 300.098H788.583L781.394 319.487C779.794 323.793 778.494 324.989 775.488 324.989ZM796.373 295.51H800.188V299.887H803.703V302.893H800.188V313.088C800.188 314.688 800.891 315.409 802.438 315.409C802.825 315.409 803.44 315.374 803.686 315.321V318.327C803.264 318.432 802.42 318.502 801.577 318.502C797.832 318.502 796.373 317.079 796.373 313.51V302.893H793.684V299.887H796.373V295.51ZM805.392 318.379V299.887H809.013V303.034H809.101C809.717 300.872 811.369 299.588 813.549 299.588C814.094 299.588 814.568 299.676 814.849 299.729V303.262C814.551 303.139 813.883 303.051 813.144 303.051C810.701 303.051 809.189 304.686 809.189 307.305V318.379H805.392ZM821.847 315.69C824.501 315.69 826.575 313.862 826.575 311.454V309.995L822.023 310.276C819.755 310.434 818.472 311.436 818.472 313.018C818.472 314.635 819.808 315.69 821.847 315.69ZM820.792 318.696C817.171 318.696 814.64 316.446 814.64 313.124C814.64 309.889 817.118 307.903 821.513 307.657L826.575 307.358V305.934C826.575 303.877 825.187 302.647 822.866 302.647C820.669 302.647 819.298 303.702 818.964 305.354H815.378C815.589 302.014 818.437 299.553 823.007 299.553C827.49 299.553 830.355 301.926 830.355 305.635V318.379H826.716V315.338H826.628C825.556 317.395 823.218 318.696 820.792 318.696ZM839.549 318.696C834.874 318.696 831.78 314.969 831.78 309.133C831.78 303.297 834.874 299.588 839.514 299.588C842.169 299.588 844.278 300.924 845.315 302.963H845.385V293.014H849.2V318.379H845.508V315.233H845.438C844.348 317.342 842.239 318.696 839.549 318.696ZM840.551 302.788C837.546 302.788 835.665 305.249 835.665 309.133C835.665 313.036 837.546 315.479 840.551 315.479C843.469 315.479 845.421 313 845.421 309.133C845.421 305.301 843.469 302.788 840.551 302.788ZM859.397 302.612C856.742 302.612 854.879 304.633 854.686 307.428H863.932C863.844 304.598 862.051 302.612 859.397 302.612ZM863.914 312.948H867.518C866.99 316.323 863.791 318.731 859.555 318.731C854.123 318.731 850.836 315.057 850.836 309.221C850.836 303.42 854.176 299.553 859.397 299.553C864.529 299.553 867.729 303.174 867.729 308.782V310.083H854.668V310.311C854.668 313.528 856.602 315.655 859.643 315.655C861.805 315.655 863.404 314.565 863.914 312.948ZM869.242 318.379V299.887H872.863V303.034H872.951C873.566 300.872 875.218 299.588 877.398 299.588C877.943 299.588 878.418 299.676 878.699 299.729V303.262C878.4 303.139 877.732 303.051 876.994 303.051C874.55 303.051 873.039 304.686 873.039 307.305V318.379H869.242ZM879.28 305.125C879.28 301.821 882.198 299.553 886.522 299.553C890.636 299.553 893.519 301.856 893.642 305.143H890.073C889.897 303.473 888.544 302.436 886.417 302.436C884.36 302.436 882.989 303.438 882.989 304.897C882.989 306.04 883.903 306.813 885.819 307.288L888.931 308.008C892.657 308.905 894.063 310.311 894.063 313.036C894.063 316.411 890.917 318.731 886.382 318.731C882.005 318.731 879.105 316.463 878.806 313.071H882.567C882.866 314.846 884.237 315.831 886.558 315.831C888.843 315.831 890.249 314.881 890.249 313.387C890.249 312.209 889.546 311.559 887.612 311.067L884.308 310.258C880.968 309.45 879.28 307.709 879.28 305.125ZM902.574 318.379V302.032H900.025V300.098H902.574V297.778C902.574 294.473 904.191 292.961 907.25 292.961C907.883 292.961 908.551 293.032 908.937 293.102V295.018C908.568 294.948 908.076 294.895 907.584 294.895C905.826 294.895 904.894 295.792 904.894 297.831V300.098H908.832V302.032H904.912V318.379H902.574ZM916.796 318.678C911.822 318.678 908.464 315.04 908.464 309.239C908.464 303.42 911.839 299.799 916.796 299.799C921.771 299.799 925.128 303.42 925.128 309.239C925.128 315.04 921.771 318.678 916.796 318.678ZM916.796 316.622C920.382 316.622 922.773 313.879 922.773 309.239C922.773 304.598 920.382 301.856 916.796 301.856C913.21 301.856 910.837 304.598 910.837 309.239C910.837 313.879 913.21 316.622 916.796 316.622ZM926.782 318.379V300.098H928.979V303.35H929.032C929.7 301.118 931.405 299.799 933.655 299.799C934.27 299.799 934.815 299.922 935.096 299.993V302.278C934.798 302.137 934.147 302.014 933.356 302.014C930.755 302.014 929.102 304.036 929.102 306.989V318.379H926.782ZM943.097 295.51H946.912V299.887H950.427V302.893H946.912V313.088C946.912 314.688 947.615 315.409 949.162 315.409C949.548 315.409 950.164 315.374 950.41 315.321V318.327C949.988 318.432 949.144 318.502 948.3 318.502C944.556 318.502 943.097 317.079 943.097 313.51V302.893H940.408V299.887H943.097V295.51ZM952.116 318.379V299.887H955.737V303.034H955.825C956.441 300.872 958.093 299.588 960.273 299.588C960.817 299.588 961.292 299.676 961.573 299.729V303.262C961.275 303.139 960.607 303.051 959.868 303.051C957.425 303.051 955.913 304.686 955.913 307.305V318.379H952.116ZM968.571 315.69C971.225 315.69 973.299 313.862 973.299 311.454V309.995L968.747 310.276C966.479 310.434 965.196 311.436 965.196 313.018C965.196 314.635 966.532 315.69 968.571 315.69ZM967.516 318.696C963.895 318.696 961.364 316.446 961.364 313.124C961.364 309.889 963.842 307.903 968.237 307.657L973.299 307.358V305.934C973.299 303.877 971.911 302.647 969.59 302.647C967.393 302.647 966.022 303.702 965.688 305.354H962.102C962.313 302.014 965.161 299.553 969.731 299.553C974.213 299.553 977.079 301.926 977.079 305.635V318.379H973.44V315.338H973.352C972.28 317.395 969.942 318.696 967.516 318.696ZM986.273 318.696C981.598 318.696 978.504 314.969 978.504 309.133C978.504 303.297 981.598 299.588 986.238 299.588C988.893 299.588 991.002 300.924 992.039 302.963H992.109V293.014H995.924V318.379H992.232V315.233H992.162C991.072 317.342 988.963 318.696 986.273 318.696ZM987.275 302.788C984.27 302.788 982.389 305.249 982.389 309.133C982.389 313.036 984.27 315.479 987.275 315.479C990.193 315.479 992.145 313 992.145 309.133C992.145 305.301 990.193 302.788 987.275 302.788ZM1006.12 302.612C1003.47 302.612 1001.6 304.633 1001.41 307.428H1010.66C1010.57 304.598 1008.77 302.612 1006.12 302.612ZM1010.64 312.948H1014.24C1013.71 316.323 1010.52 318.731 1006.28 318.731C1000.85 318.731 997.56 315.057 997.56 309.221C997.56 303.42 1000.9 299.553 1006.12 299.553C1011.25 299.553 1014.45 303.174 1014.45 308.782V310.083H1001.39V310.311C1001.39 313.528 1003.33 315.655 1006.37 315.655C1008.53 315.655 1010.13 314.565 1010.64 312.948ZM1015.97 318.379V299.887H1019.59V303.034H1019.67C1020.29 300.872 1021.94 299.588 1024.12 299.588C1024.67 299.588 1025.14 299.676 1025.42 299.729V303.262C1025.12 303.139 1024.46 303.051 1023.72 303.051C1021.27 303.051 1019.76 304.686 1019.76 307.305V318.379H1015.97ZM1026 305.125C1026 301.821 1028.92 299.553 1033.25 299.553C1037.36 299.553 1040.24 301.856 1040.37 305.143H1036.8C1036.62 303.473 1035.27 302.436 1033.14 302.436C1031.08 302.436 1029.71 303.438 1029.71 304.897C1029.71 306.04 1030.63 306.813 1032.54 307.288L1035.65 308.008C1039.38 308.905 1040.79 310.311 1040.79 313.036C1040.79 316.411 1037.64 318.731 1033.11 318.731C1028.73 318.731 1025.83 316.463 1025.53 313.071H1029.29C1029.59 314.846 1030.96 315.831 1033.28 315.831C1035.57 315.831 1036.97 314.881 1036.97 313.387C1036.97 312.209 1036.27 311.559 1034.34 311.067L1031.03 310.258C1027.69 309.45 1026 307.709 1026 305.125Z" fill="black"/>
</svg>
